%TF.GenerationSoftware,KiCad,Pcbnew,(6.0.4)*%
%TF.CreationDate,2022-05-17T22:38:11-07:00*%
%TF.ProjectId,ffc_interceptor,6666635f-696e-4746-9572-636570746f72,rev?*%
%TF.SameCoordinates,Original*%
%TF.FileFunction,Soldermask,Top*%
%TF.FilePolarity,Negative*%
%FSLAX46Y46*%
G04 Gerber Fmt 4.6, Leading zero omitted, Abs format (unit mm)*
G04 Created by KiCad (PCBNEW (6.0.4)) date 2022-05-17 22:38:11*
%MOMM*%
%LPD*%
G01*
G04 APERTURE LIST*
G04 Aperture macros list*
%AMFreePoly0*
4,1,6,1.000000,0.000000,0.500000,-0.750000,-0.500000,-0.750000,-0.500000,0.750000,0.500000,0.750000,1.000000,0.000000,1.000000,0.000000,$1*%
%AMFreePoly1*
4,1,6,0.500000,-0.750000,-0.650000,-0.750000,-0.150000,0.000000,-0.650000,0.750000,0.500000,0.750000,0.500000,-0.750000,0.500000,-0.750000,$1*%
G04 Aperture macros list end*
%ADD10FreePoly0,0.000000*%
%ADD11FreePoly1,0.000000*%
%ADD12R,1.000000X0.400000*%
%ADD13R,1.300000X2.000000*%
%ADD14C,3.600000*%
%ADD15C,5.600000*%
%ADD16R,1.700000X1.700000*%
%ADD17O,1.700000X1.700000*%
G04 APERTURE END LIST*
D10*
%TO.C,JP8*%
X168947000Y-91440000D03*
D11*
X170397000Y-91440000D03*
%TD*%
D10*
%TO.C,JP18*%
X168947000Y-116840000D03*
D11*
X170397000Y-116840000D03*
%TD*%
D10*
%TO.C,JP1*%
X168947000Y-73660000D03*
D11*
X170397000Y-73660000D03*
%TD*%
D10*
%TO.C,JP11*%
X168947000Y-99060000D03*
D11*
X170397000Y-99060000D03*
%TD*%
D12*
%TO.C,J1*%
X132588000Y-89070000D03*
X132588000Y-90070000D03*
X132588000Y-91070000D03*
X132588000Y-92070000D03*
X132588000Y-93070000D03*
X132588000Y-94070000D03*
X132588000Y-95070000D03*
X132588000Y-96070000D03*
X132588000Y-97070000D03*
X132588000Y-98070000D03*
X132588000Y-99070000D03*
X132588000Y-100070000D03*
X132588000Y-101070000D03*
X132588000Y-102070000D03*
X132588000Y-103070000D03*
X132588000Y-104070000D03*
X132588000Y-105070000D03*
X132588000Y-106070000D03*
X132588000Y-107070000D03*
X132588000Y-108070000D03*
X132588000Y-109070000D03*
D13*
X129888000Y-111870000D03*
X129888000Y-86270000D03*
%TD*%
D10*
%TO.C,JP20*%
X168947000Y-121920000D03*
D11*
X170397000Y-121920000D03*
%TD*%
D12*
%TO.C,J3*%
X184002000Y-109070000D03*
X184002000Y-108070000D03*
X184002000Y-107070000D03*
X184002000Y-106070000D03*
X184002000Y-105070000D03*
X184002000Y-104070000D03*
X184002000Y-103070000D03*
X184002000Y-102070000D03*
X184002000Y-101070000D03*
X184002000Y-100070000D03*
X184002000Y-99070000D03*
X184002000Y-98070000D03*
X184002000Y-97070000D03*
X184002000Y-96070000D03*
X184002000Y-95070000D03*
X184002000Y-94070000D03*
X184002000Y-93070000D03*
X184002000Y-92070000D03*
X184002000Y-91070000D03*
X184002000Y-90070000D03*
X184002000Y-89070000D03*
D13*
X186702000Y-111870000D03*
X186702000Y-86270000D03*
%TD*%
D10*
%TO.C,JP3*%
X168947000Y-78740000D03*
D11*
X170397000Y-78740000D03*
%TD*%
D10*
%TO.C,JP15*%
X168947000Y-109220000D03*
D11*
X170397000Y-109220000D03*
%TD*%
D10*
%TO.C,JP13*%
X168947000Y-104140000D03*
D11*
X170397000Y-104140000D03*
%TD*%
D14*
%TO.C,H2*%
X131064000Y-75184000D03*
D15*
X131064000Y-75184000D03*
%TD*%
D10*
%TO.C,JP19*%
X168947000Y-119380000D03*
D11*
X170397000Y-119380000D03*
%TD*%
D10*
%TO.C,JP12*%
X168947000Y-101600000D03*
D11*
X170397000Y-101600000D03*
%TD*%
D10*
%TO.C,JP9*%
X168947000Y-93980000D03*
D11*
X170397000Y-93980000D03*
%TD*%
D10*
%TO.C,JP4*%
X168947000Y-81280000D03*
D11*
X170397000Y-81280000D03*
%TD*%
D10*
%TO.C,JP7*%
X168947000Y-88900000D03*
D11*
X170397000Y-88900000D03*
%TD*%
D10*
%TO.C,JP16*%
X168947000Y-111760000D03*
D11*
X170397000Y-111760000D03*
%TD*%
D10*
%TO.C,JP5*%
X168947000Y-83820000D03*
D11*
X170397000Y-83820000D03*
%TD*%
D10*
%TO.C,JP14*%
X168947000Y-106680000D03*
D11*
X170397000Y-106680000D03*
%TD*%
D10*
%TO.C,JP17*%
X168947000Y-114300000D03*
D11*
X170397000Y-114300000D03*
%TD*%
D10*
%TO.C,JP6*%
X168947000Y-86360000D03*
D11*
X170397000Y-86360000D03*
%TD*%
D14*
%TO.C,H3*%
X131064000Y-122936000D03*
D15*
X131064000Y-122936000D03*
%TD*%
D14*
%TO.C,H1*%
X185420000Y-75184000D03*
D15*
X185420000Y-75184000D03*
%TD*%
D10*
%TO.C,JP21*%
X168947000Y-124460000D03*
D11*
X170397000Y-124460000D03*
%TD*%
D10*
%TO.C,JP10*%
X168947000Y-96520000D03*
D11*
X170397000Y-96520000D03*
%TD*%
D16*
%TO.C,J2*%
X144272000Y-73660000D03*
D17*
X144272000Y-76200000D03*
X144272000Y-78740000D03*
X144272000Y-81280000D03*
X144272000Y-83820000D03*
X144272000Y-86360000D03*
X144272000Y-88900000D03*
X144272000Y-91440000D03*
X144272000Y-93980000D03*
X144272000Y-96520000D03*
X144272000Y-99060000D03*
X144272000Y-101600000D03*
X144272000Y-104140000D03*
X144272000Y-106680000D03*
X144272000Y-109220000D03*
X144272000Y-111760000D03*
X144272000Y-114300000D03*
X144272000Y-116840000D03*
X144272000Y-119380000D03*
X144272000Y-121920000D03*
X144272000Y-124460000D03*
%TD*%
D10*
%TO.C,JP2*%
X168947000Y-76200000D03*
D11*
X170397000Y-76200000D03*
%TD*%
M02*
