%TF.GenerationSoftware,KiCad,Pcbnew,(6.0.4)*%
%TF.CreationDate,2022-05-17T22:38:10-07:00*%
%TF.ProjectId,ffc_interceptor,6666635f-696e-4746-9572-636570746f72,rev?*%
%TF.SameCoordinates,Original*%
%TF.FileFunction,Legend,Top*%
%TF.FilePolarity,Positive*%
%FSLAX46Y46*%
G04 Gerber Fmt 4.6, Leading zero omitted, Abs format (unit mm)*
G04 Created by KiCad (PCBNEW (6.0.4)) date 2022-05-17 22:38:10*
%MOMM*%
%LPD*%
G01*
G04 APERTURE LIST*
%ADD10C,0.200000*%
%ADD11C,0.300000*%
%ADD12C,0.120000*%
G04 APERTURE END LIST*
D10*
X146812000Y-72390000D02*
X167132000Y-72390000D01*
X167132000Y-72390000D02*
X167132000Y-74295000D01*
X167132000Y-74295000D02*
X146812000Y-74295000D01*
X146812000Y-74295000D02*
X146812000Y-72390000D01*
G36*
X146812000Y-72390000D02*
G01*
X167132000Y-72390000D01*
X167132000Y-74295000D01*
X146812000Y-74295000D01*
X146812000Y-72390000D01*
G37*
X146812000Y-107950000D02*
X167132000Y-107950000D01*
X167132000Y-107950000D02*
X167132000Y-109855000D01*
X167132000Y-109855000D02*
X146812000Y-109855000D01*
X146812000Y-109855000D02*
X146812000Y-107950000D01*
G36*
X146812000Y-107950000D02*
G01*
X167132000Y-107950000D01*
X167132000Y-109855000D01*
X146812000Y-109855000D01*
X146812000Y-107950000D01*
G37*
X146812000Y-82550000D02*
X167132000Y-82550000D01*
X167132000Y-82550000D02*
X167132000Y-84455000D01*
X167132000Y-84455000D02*
X146812000Y-84455000D01*
X146812000Y-84455000D02*
X146812000Y-82550000D01*
G36*
X146812000Y-82550000D02*
G01*
X167132000Y-82550000D01*
X167132000Y-84455000D01*
X146812000Y-84455000D01*
X146812000Y-82550000D01*
G37*
X146812000Y-80010000D02*
X167132000Y-80010000D01*
X167132000Y-80010000D02*
X167132000Y-81915000D01*
X167132000Y-81915000D02*
X146812000Y-81915000D01*
X146812000Y-81915000D02*
X146812000Y-80010000D01*
G36*
X146812000Y-80010000D02*
G01*
X167132000Y-80010000D01*
X167132000Y-81915000D01*
X146812000Y-81915000D01*
X146812000Y-80010000D01*
G37*
X146812000Y-92710000D02*
X167132000Y-92710000D01*
X167132000Y-92710000D02*
X167132000Y-94615000D01*
X167132000Y-94615000D02*
X146812000Y-94615000D01*
X146812000Y-94615000D02*
X146812000Y-92710000D01*
G36*
X146812000Y-92710000D02*
G01*
X167132000Y-92710000D01*
X167132000Y-94615000D01*
X146812000Y-94615000D01*
X146812000Y-92710000D01*
G37*
X146812000Y-97790000D02*
X167132000Y-97790000D01*
X167132000Y-97790000D02*
X167132000Y-99695000D01*
X167132000Y-99695000D02*
X146812000Y-99695000D01*
X146812000Y-99695000D02*
X146812000Y-97790000D01*
G36*
X146812000Y-97790000D02*
G01*
X167132000Y-97790000D01*
X167132000Y-99695000D01*
X146812000Y-99695000D01*
X146812000Y-97790000D01*
G37*
X146812000Y-115570000D02*
X167132000Y-115570000D01*
X167132000Y-115570000D02*
X167132000Y-117475000D01*
X167132000Y-117475000D02*
X146812000Y-117475000D01*
X146812000Y-117475000D02*
X146812000Y-115570000D01*
G36*
X146812000Y-115570000D02*
G01*
X167132000Y-115570000D01*
X167132000Y-117475000D01*
X146812000Y-117475000D01*
X146812000Y-115570000D01*
G37*
X146812000Y-113030000D02*
X167132000Y-113030000D01*
X167132000Y-113030000D02*
X167132000Y-114935000D01*
X167132000Y-114935000D02*
X146812000Y-114935000D01*
X146812000Y-114935000D02*
X146812000Y-113030000D01*
G36*
X146812000Y-113030000D02*
G01*
X167132000Y-113030000D01*
X167132000Y-114935000D01*
X146812000Y-114935000D01*
X146812000Y-113030000D01*
G37*
X146812000Y-74930000D02*
X167132000Y-74930000D01*
X167132000Y-74930000D02*
X167132000Y-76835000D01*
X167132000Y-76835000D02*
X146812000Y-76835000D01*
X146812000Y-76835000D02*
X146812000Y-74930000D01*
G36*
X146812000Y-74930000D02*
G01*
X167132000Y-74930000D01*
X167132000Y-76835000D01*
X146812000Y-76835000D01*
X146812000Y-74930000D01*
G37*
X146812000Y-110490000D02*
X167132000Y-110490000D01*
X167132000Y-110490000D02*
X167132000Y-112395000D01*
X167132000Y-112395000D02*
X146812000Y-112395000D01*
X146812000Y-112395000D02*
X146812000Y-110490000D01*
G36*
X146812000Y-110490000D02*
G01*
X167132000Y-110490000D01*
X167132000Y-112395000D01*
X146812000Y-112395000D01*
X146812000Y-110490000D01*
G37*
X146812000Y-118110000D02*
X167132000Y-118110000D01*
X167132000Y-118110000D02*
X167132000Y-120015000D01*
X167132000Y-120015000D02*
X146812000Y-120015000D01*
X146812000Y-120015000D02*
X146812000Y-118110000D01*
G36*
X146812000Y-118110000D02*
G01*
X167132000Y-118110000D01*
X167132000Y-120015000D01*
X146812000Y-120015000D01*
X146812000Y-118110000D01*
G37*
X146812000Y-105410000D02*
X167132000Y-105410000D01*
X167132000Y-105410000D02*
X167132000Y-107315000D01*
X167132000Y-107315000D02*
X146812000Y-107315000D01*
X146812000Y-107315000D02*
X146812000Y-105410000D01*
G36*
X146812000Y-105410000D02*
G01*
X167132000Y-105410000D01*
X167132000Y-107315000D01*
X146812000Y-107315000D01*
X146812000Y-105410000D01*
G37*
X146812000Y-95250000D02*
X167132000Y-95250000D01*
X167132000Y-95250000D02*
X167132000Y-97155000D01*
X167132000Y-97155000D02*
X146812000Y-97155000D01*
X146812000Y-97155000D02*
X146812000Y-95250000D01*
G36*
X146812000Y-95250000D02*
G01*
X167132000Y-95250000D01*
X167132000Y-97155000D01*
X146812000Y-97155000D01*
X146812000Y-95250000D01*
G37*
X146812000Y-87630000D02*
X167132000Y-87630000D01*
X167132000Y-87630000D02*
X167132000Y-89535000D01*
X167132000Y-89535000D02*
X146812000Y-89535000D01*
X146812000Y-89535000D02*
X146812000Y-87630000D01*
G36*
X146812000Y-87630000D02*
G01*
X167132000Y-87630000D01*
X167132000Y-89535000D01*
X146812000Y-89535000D01*
X146812000Y-87630000D01*
G37*
X146812000Y-85090000D02*
X167132000Y-85090000D01*
X167132000Y-85090000D02*
X167132000Y-86995000D01*
X167132000Y-86995000D02*
X146812000Y-86995000D01*
X146812000Y-86995000D02*
X146812000Y-85090000D01*
G36*
X146812000Y-85090000D02*
G01*
X167132000Y-85090000D01*
X167132000Y-86995000D01*
X146812000Y-86995000D01*
X146812000Y-85090000D01*
G37*
X146812000Y-123190000D02*
X167132000Y-123190000D01*
X167132000Y-123190000D02*
X167132000Y-125095000D01*
X167132000Y-125095000D02*
X146812000Y-125095000D01*
X146812000Y-125095000D02*
X146812000Y-123190000D01*
G36*
X146812000Y-123190000D02*
G01*
X167132000Y-123190000D01*
X167132000Y-125095000D01*
X146812000Y-125095000D01*
X146812000Y-123190000D01*
G37*
X146812000Y-90170000D02*
X167132000Y-90170000D01*
X167132000Y-90170000D02*
X167132000Y-92075000D01*
X167132000Y-92075000D02*
X146812000Y-92075000D01*
X146812000Y-92075000D02*
X146812000Y-90170000D01*
G36*
X146812000Y-90170000D02*
G01*
X167132000Y-90170000D01*
X167132000Y-92075000D01*
X146812000Y-92075000D01*
X146812000Y-90170000D01*
G37*
X146812000Y-120650000D02*
X167132000Y-120650000D01*
X167132000Y-120650000D02*
X167132000Y-122555000D01*
X167132000Y-122555000D02*
X146812000Y-122555000D01*
X146812000Y-122555000D02*
X146812000Y-120650000D01*
G36*
X146812000Y-120650000D02*
G01*
X167132000Y-120650000D01*
X167132000Y-122555000D01*
X146812000Y-122555000D01*
X146812000Y-120650000D01*
G37*
X146812000Y-77470000D02*
X167132000Y-77470000D01*
X167132000Y-77470000D02*
X167132000Y-79375000D01*
X167132000Y-79375000D02*
X146812000Y-79375000D01*
X146812000Y-79375000D02*
X146812000Y-77470000D01*
G36*
X146812000Y-77470000D02*
G01*
X167132000Y-77470000D01*
X167132000Y-79375000D01*
X146812000Y-79375000D01*
X146812000Y-77470000D01*
G37*
X146812000Y-100330000D02*
X167132000Y-100330000D01*
X167132000Y-100330000D02*
X167132000Y-102235000D01*
X167132000Y-102235000D02*
X146812000Y-102235000D01*
X146812000Y-102235000D02*
X146812000Y-100330000D01*
G36*
X146812000Y-100330000D02*
G01*
X167132000Y-100330000D01*
X167132000Y-102235000D01*
X146812000Y-102235000D01*
X146812000Y-100330000D01*
G37*
X146812000Y-102870000D02*
X167132000Y-102870000D01*
X167132000Y-102870000D02*
X167132000Y-104775000D01*
X167132000Y-104775000D02*
X146812000Y-104775000D01*
X146812000Y-104775000D02*
X146812000Y-102870000D01*
G36*
X146812000Y-102870000D02*
G01*
X167132000Y-102870000D01*
X167132000Y-104775000D01*
X146812000Y-104775000D01*
X146812000Y-102870000D01*
G37*
D11*
X130052000Y-117518571D02*
X129552000Y-116804285D01*
X129194857Y-117518571D02*
X129194857Y-116018571D01*
X129766285Y-116018571D01*
X129909142Y-116090000D01*
X129980571Y-116161428D01*
X130052000Y-116304285D01*
X130052000Y-116518571D01*
X129980571Y-116661428D01*
X129909142Y-116732857D01*
X129766285Y-116804285D01*
X129194857Y-116804285D01*
X131480571Y-117518571D02*
X130623428Y-117518571D01*
X131052000Y-117518571D02*
X131052000Y-116018571D01*
X130909142Y-116232857D01*
X130766285Y-116375714D01*
X130623428Y-116447142D01*
X185186000Y-80458571D02*
X185471714Y-80458571D01*
X185614571Y-80530000D01*
X185757428Y-80672857D01*
X185828857Y-80958571D01*
X185828857Y-81458571D01*
X185757428Y-81744285D01*
X185614571Y-81887142D01*
X185471714Y-81958571D01*
X185186000Y-81958571D01*
X185043142Y-81887142D01*
X184900285Y-81744285D01*
X184828857Y-81458571D01*
X184828857Y-80958571D01*
X184900285Y-80672857D01*
X185043142Y-80530000D01*
X185186000Y-80458571D01*
X187114571Y-80958571D02*
X187114571Y-81958571D01*
X186471714Y-80958571D02*
X186471714Y-81744285D01*
X186543142Y-81887142D01*
X186686000Y-81958571D01*
X186900285Y-81958571D01*
X187043142Y-81887142D01*
X187114571Y-81815714D01*
X187614571Y-80958571D02*
X188186000Y-80958571D01*
X187828857Y-80458571D02*
X187828857Y-81744285D01*
X187900285Y-81887142D01*
X188043142Y-81958571D01*
X188186000Y-81958571D01*
X129369428Y-81958571D02*
X129369428Y-80458571D01*
X130083714Y-80958571D02*
X130083714Y-81958571D01*
X130083714Y-81101428D02*
X130155142Y-81030000D01*
X130298000Y-80958571D01*
X130512285Y-80958571D01*
X130655142Y-81030000D01*
X130726571Y-81172857D01*
X130726571Y-81958571D01*
X173687619Y-118514585D02*
X173264285Y-118514585D01*
X173264285Y-119179823D02*
X173264285Y-117909823D01*
X173869047Y-117909823D01*
X174776190Y-118514585D02*
X174352857Y-118514585D01*
X174352857Y-119179823D02*
X174352857Y-117909823D01*
X174957619Y-117909823D01*
X176167142Y-119058871D02*
X176106666Y-119119347D01*
X175925238Y-119179823D01*
X175804285Y-119179823D01*
X175622857Y-119119347D01*
X175501904Y-118998395D01*
X175441428Y-118877442D01*
X175380952Y-118635538D01*
X175380952Y-118454109D01*
X175441428Y-118212204D01*
X175501904Y-118091252D01*
X175622857Y-117970300D01*
X175804285Y-117909823D01*
X175925238Y-117909823D01*
X176106666Y-117970300D01*
X176167142Y-118030776D01*
X177679047Y-119179823D02*
X177679047Y-117909823D01*
X178283809Y-118333157D02*
X178283809Y-119179823D01*
X178283809Y-118454109D02*
X178344285Y-118393633D01*
X178465238Y-118333157D01*
X178646666Y-118333157D01*
X178767619Y-118393633D01*
X178828095Y-118514585D01*
X178828095Y-119179823D01*
X179251428Y-118333157D02*
X179735238Y-118333157D01*
X179432857Y-117909823D02*
X179432857Y-118998395D01*
X179493333Y-119119347D01*
X179614285Y-119179823D01*
X179735238Y-119179823D01*
X180642380Y-119119347D02*
X180521428Y-119179823D01*
X180279523Y-119179823D01*
X180158571Y-119119347D01*
X180098095Y-118998395D01*
X180098095Y-118514585D01*
X180158571Y-118393633D01*
X180279523Y-118333157D01*
X180521428Y-118333157D01*
X180642380Y-118393633D01*
X180702857Y-118514585D01*
X180702857Y-118635538D01*
X180098095Y-118756490D01*
X181247142Y-119179823D02*
X181247142Y-118333157D01*
X181247142Y-118575061D02*
X181307619Y-118454109D01*
X181368095Y-118393633D01*
X181489047Y-118333157D01*
X181610000Y-118333157D01*
X182577619Y-119119347D02*
X182456666Y-119179823D01*
X182214761Y-119179823D01*
X182093809Y-119119347D01*
X182033333Y-119058871D01*
X181972857Y-118937919D01*
X181972857Y-118575061D01*
X182033333Y-118454109D01*
X182093809Y-118393633D01*
X182214761Y-118333157D01*
X182456666Y-118333157D01*
X182577619Y-118393633D01*
X183605714Y-119119347D02*
X183484761Y-119179823D01*
X183242857Y-119179823D01*
X183121904Y-119119347D01*
X183061428Y-118998395D01*
X183061428Y-118514585D01*
X183121904Y-118393633D01*
X183242857Y-118333157D01*
X183484761Y-118333157D01*
X183605714Y-118393633D01*
X183666190Y-118514585D01*
X183666190Y-118635538D01*
X183061428Y-118756490D01*
X184210476Y-118333157D02*
X184210476Y-119603157D01*
X184210476Y-118393633D02*
X184331428Y-118333157D01*
X184573333Y-118333157D01*
X184694285Y-118393633D01*
X184754761Y-118454109D01*
X184815238Y-118575061D01*
X184815238Y-118937919D01*
X184754761Y-119058871D01*
X184694285Y-119119347D01*
X184573333Y-119179823D01*
X184331428Y-119179823D01*
X184210476Y-119119347D01*
X185178095Y-118333157D02*
X185661904Y-118333157D01*
X185359523Y-117909823D02*
X185359523Y-118998395D01*
X185420000Y-119119347D01*
X185540952Y-119179823D01*
X185661904Y-119179823D01*
X186266666Y-119179823D02*
X186145714Y-119119347D01*
X186085238Y-119058871D01*
X186024761Y-118937919D01*
X186024761Y-118575061D01*
X186085238Y-118454109D01*
X186145714Y-118393633D01*
X186266666Y-118333157D01*
X186448095Y-118333157D01*
X186569047Y-118393633D01*
X186629523Y-118454109D01*
X186690000Y-118575061D01*
X186690000Y-118937919D01*
X186629523Y-119058871D01*
X186569047Y-119119347D01*
X186448095Y-119179823D01*
X186266666Y-119179823D01*
X187234285Y-119179823D02*
X187234285Y-118333157D01*
X187234285Y-118575061D02*
X187294761Y-118454109D01*
X187355238Y-118393633D01*
X187476190Y-118333157D01*
X187597142Y-118333157D01*
X177134761Y-120075476D02*
X177195238Y-120015000D01*
X177316190Y-119954523D01*
X177618571Y-119954523D01*
X177739523Y-120015000D01*
X177800000Y-120075476D01*
X177860476Y-120196428D01*
X177860476Y-120317380D01*
X177800000Y-120498809D01*
X177074285Y-121224523D01*
X177860476Y-121224523D01*
X179070000Y-121224523D02*
X178344285Y-121224523D01*
X178707142Y-121224523D02*
X178707142Y-119954523D01*
X178586190Y-120135952D01*
X178465238Y-120256904D01*
X178344285Y-120317380D01*
X179614285Y-120740714D02*
X180581904Y-120740714D01*
X181186666Y-120377857D02*
X181186666Y-121647857D01*
X181186666Y-120438333D02*
X181307619Y-120377857D01*
X181549523Y-120377857D01*
X181670476Y-120438333D01*
X181730952Y-120498809D01*
X181791428Y-120619761D01*
X181791428Y-120982619D01*
X181730952Y-121103571D01*
X181670476Y-121164047D01*
X181549523Y-121224523D01*
X181307619Y-121224523D01*
X181186666Y-121164047D01*
X182335714Y-121224523D02*
X182335714Y-120377857D01*
X182335714Y-119954523D02*
X182275238Y-120015000D01*
X182335714Y-120075476D01*
X182396190Y-120015000D01*
X182335714Y-119954523D01*
X182335714Y-120075476D01*
X182940476Y-120377857D02*
X182940476Y-121224523D01*
X182940476Y-120498809D02*
X183000952Y-120438333D01*
X183121904Y-120377857D01*
X183303333Y-120377857D01*
X183424285Y-120438333D01*
X183484761Y-120559285D01*
X183484761Y-121224523D01*
X176167142Y-123269223D02*
X175441428Y-123269223D01*
X175804285Y-123269223D02*
X175804285Y-121999223D01*
X175683333Y-122180652D01*
X175562380Y-122301604D01*
X175441428Y-122362080D01*
X176711428Y-123269223D02*
X176711428Y-122422557D01*
X176711428Y-122543509D02*
X176771904Y-122483033D01*
X176892857Y-122422557D01*
X177074285Y-122422557D01*
X177195238Y-122483033D01*
X177255714Y-122603985D01*
X177255714Y-123269223D01*
X177255714Y-122603985D02*
X177316190Y-122483033D01*
X177437142Y-122422557D01*
X177618571Y-122422557D01*
X177739523Y-122483033D01*
X177800000Y-122603985D01*
X177800000Y-123269223D01*
X178404761Y-123269223D02*
X178404761Y-122422557D01*
X178404761Y-122543509D02*
X178465238Y-122483033D01*
X178586190Y-122422557D01*
X178767619Y-122422557D01*
X178888571Y-122483033D01*
X178949047Y-122603985D01*
X178949047Y-123269223D01*
X178949047Y-122603985D02*
X179009523Y-122483033D01*
X179130476Y-122422557D01*
X179311904Y-122422557D01*
X179432857Y-122483033D01*
X179493333Y-122603985D01*
X179493333Y-123269223D01*
X181065714Y-122422557D02*
X181065714Y-123692557D01*
X181065714Y-122483033D02*
X181186666Y-122422557D01*
X181428571Y-122422557D01*
X181549523Y-122483033D01*
X181610000Y-122543509D01*
X181670476Y-122664461D01*
X181670476Y-123027319D01*
X181610000Y-123148271D01*
X181549523Y-123208747D01*
X181428571Y-123269223D01*
X181186666Y-123269223D01*
X181065714Y-123208747D01*
X182214761Y-123269223D02*
X182214761Y-122422557D01*
X182214761Y-121999223D02*
X182154285Y-122059700D01*
X182214761Y-122120176D01*
X182275238Y-122059700D01*
X182214761Y-121999223D01*
X182214761Y-122120176D01*
X182638095Y-122422557D02*
X183121904Y-122422557D01*
X182819523Y-121999223D02*
X182819523Y-123087795D01*
X182880000Y-123208747D01*
X183000952Y-123269223D01*
X183121904Y-123269223D01*
X184089523Y-123208747D02*
X183968571Y-123269223D01*
X183726666Y-123269223D01*
X183605714Y-123208747D01*
X183545238Y-123148271D01*
X183484761Y-123027319D01*
X183484761Y-122664461D01*
X183545238Y-122543509D01*
X183605714Y-122483033D01*
X183726666Y-122422557D01*
X183968571Y-122422557D01*
X184089523Y-122483033D01*
X184633809Y-123269223D02*
X184633809Y-121999223D01*
X185178095Y-123269223D02*
X185178095Y-122603985D01*
X185117619Y-122483033D01*
X184996666Y-122422557D01*
X184815238Y-122422557D01*
X184694285Y-122483033D01*
X184633809Y-122543509D01*
D12*
%TO.C,JP8*%
X168272000Y-92440000D02*
X168272000Y-90440000D01*
X171072000Y-90440000D02*
X171072000Y-92440000D01*
X168272000Y-90440000D02*
X171072000Y-90440000D01*
X171072000Y-92440000D02*
X168272000Y-92440000D01*
%TO.C,JP18*%
X168272000Y-117840000D02*
X168272000Y-115840000D01*
X171072000Y-115840000D02*
X171072000Y-117840000D01*
X171072000Y-117840000D02*
X168272000Y-117840000D01*
X168272000Y-115840000D02*
X171072000Y-115840000D01*
%TO.C,JP1*%
X171072000Y-74660000D02*
X168272000Y-74660000D01*
X171072000Y-72660000D02*
X171072000Y-74660000D01*
X168272000Y-74660000D02*
X168272000Y-72660000D01*
X168272000Y-72660000D02*
X171072000Y-72660000D01*
%TO.C,JP11*%
X168272000Y-100060000D02*
X168272000Y-98060000D01*
X171072000Y-98060000D02*
X171072000Y-100060000D01*
X171072000Y-100060000D02*
X168272000Y-100060000D01*
X168272000Y-98060000D02*
X171072000Y-98060000D01*
%TO.C,J1*%
X127378000Y-111480000D02*
X128678000Y-111480000D01*
X128678000Y-85860000D02*
X128678000Y-86660000D01*
X132848000Y-112280000D02*
X132848000Y-111510000D01*
X133088000Y-88610000D02*
X132498000Y-88610000D01*
X132848000Y-86630000D02*
X132848000Y-85860000D01*
X130798000Y-112280000D02*
X132848000Y-112280000D01*
X128978000Y-85860000D02*
X128678000Y-85860000D01*
X132848000Y-111510000D02*
X132498000Y-111510000D01*
X128678000Y-111480000D02*
X128678000Y-112280000D01*
X128678000Y-112280000D02*
X128978000Y-112280000D01*
X132498000Y-88610000D02*
X132498000Y-86630000D01*
X128678000Y-86660000D02*
X127378000Y-86660000D01*
X132848000Y-85860000D02*
X130798000Y-85860000D01*
X132498000Y-86630000D02*
X132848000Y-86630000D01*
X132498000Y-111510000D02*
X132498000Y-109530000D01*
X127378000Y-86660000D02*
X127378000Y-111480000D01*
%TO.C,JP20*%
X168272000Y-122920000D02*
X168272000Y-120920000D01*
X168272000Y-120920000D02*
X171072000Y-120920000D01*
X171072000Y-122920000D02*
X168272000Y-122920000D01*
X171072000Y-120920000D02*
X171072000Y-122920000D01*
%TO.C,J3*%
X189212000Y-86660000D02*
X187912000Y-86660000D01*
X187912000Y-85860000D02*
X187612000Y-85860000D01*
X189212000Y-111480000D02*
X189212000Y-86660000D01*
X187912000Y-111480000D02*
X189212000Y-111480000D01*
X183742000Y-112280000D02*
X185792000Y-112280000D01*
X183742000Y-86630000D02*
X184092000Y-86630000D01*
X183742000Y-85860000D02*
X183742000Y-86630000D01*
X184092000Y-109530000D02*
X184092000Y-111510000D01*
X183502000Y-109530000D02*
X184092000Y-109530000D01*
X185792000Y-85860000D02*
X183742000Y-85860000D01*
X187612000Y-112280000D02*
X187912000Y-112280000D01*
X184092000Y-86630000D02*
X184092000Y-88610000D01*
X183742000Y-111510000D02*
X183742000Y-112280000D01*
X184092000Y-111510000D02*
X183742000Y-111510000D01*
X187912000Y-86660000D02*
X187912000Y-85860000D01*
X187912000Y-112280000D02*
X187912000Y-111480000D01*
%TO.C,JP3*%
X168272000Y-79740000D02*
X168272000Y-77740000D01*
X171072000Y-79740000D02*
X168272000Y-79740000D01*
X168272000Y-77740000D02*
X171072000Y-77740000D01*
X171072000Y-77740000D02*
X171072000Y-79740000D01*
%TO.C,JP15*%
X171072000Y-110220000D02*
X168272000Y-110220000D01*
X168272000Y-108220000D02*
X171072000Y-108220000D01*
X168272000Y-110220000D02*
X168272000Y-108220000D01*
X171072000Y-108220000D02*
X171072000Y-110220000D01*
%TO.C,JP13*%
X168272000Y-105140000D02*
X168272000Y-103140000D01*
X168272000Y-103140000D02*
X171072000Y-103140000D01*
X171072000Y-103140000D02*
X171072000Y-105140000D01*
X171072000Y-105140000D02*
X168272000Y-105140000D01*
%TO.C,JP19*%
X171072000Y-118380000D02*
X171072000Y-120380000D01*
X171072000Y-120380000D02*
X168272000Y-120380000D01*
X168272000Y-118380000D02*
X171072000Y-118380000D01*
X168272000Y-120380000D02*
X168272000Y-118380000D01*
%TO.C,JP12*%
X168272000Y-100600000D02*
X171072000Y-100600000D01*
X168272000Y-102600000D02*
X168272000Y-100600000D01*
X171072000Y-102600000D02*
X168272000Y-102600000D01*
X171072000Y-100600000D02*
X171072000Y-102600000D01*
%TO.C,JP9*%
X168272000Y-94980000D02*
X168272000Y-92980000D01*
X171072000Y-94980000D02*
X168272000Y-94980000D01*
X171072000Y-92980000D02*
X171072000Y-94980000D01*
X168272000Y-92980000D02*
X171072000Y-92980000D01*
%TO.C,JP4*%
X171072000Y-80280000D02*
X171072000Y-82280000D01*
X168272000Y-80280000D02*
X171072000Y-80280000D01*
X168272000Y-82280000D02*
X168272000Y-80280000D01*
X171072000Y-82280000D02*
X168272000Y-82280000D01*
%TO.C,JP7*%
X168272000Y-87900000D02*
X171072000Y-87900000D01*
X168272000Y-89900000D02*
X168272000Y-87900000D01*
X171072000Y-89900000D02*
X168272000Y-89900000D01*
X171072000Y-87900000D02*
X171072000Y-89900000D01*
%TO.C,JP16*%
X168272000Y-110760000D02*
X171072000Y-110760000D01*
X171072000Y-110760000D02*
X171072000Y-112760000D01*
X168272000Y-112760000D02*
X168272000Y-110760000D01*
X171072000Y-112760000D02*
X168272000Y-112760000D01*
%TO.C,JP5*%
X171072000Y-84820000D02*
X168272000Y-84820000D01*
X168272000Y-82820000D02*
X171072000Y-82820000D01*
X171072000Y-82820000D02*
X171072000Y-84820000D01*
X168272000Y-84820000D02*
X168272000Y-82820000D01*
%TO.C,JP14*%
X171072000Y-105680000D02*
X171072000Y-107680000D01*
X171072000Y-107680000D02*
X168272000Y-107680000D01*
X168272000Y-107680000D02*
X168272000Y-105680000D01*
X168272000Y-105680000D02*
X171072000Y-105680000D01*
%TO.C,JP17*%
X171072000Y-113300000D02*
X171072000Y-115300000D01*
X168272000Y-115300000D02*
X168272000Y-113300000D01*
X168272000Y-113300000D02*
X171072000Y-113300000D01*
X171072000Y-115300000D02*
X168272000Y-115300000D01*
%TO.C,JP6*%
X171072000Y-87360000D02*
X168272000Y-87360000D01*
X168272000Y-87360000D02*
X168272000Y-85360000D01*
X168272000Y-85360000D02*
X171072000Y-85360000D01*
X171072000Y-85360000D02*
X171072000Y-87360000D01*
%TO.C,JP21*%
X168272000Y-123460000D02*
X171072000Y-123460000D01*
X171072000Y-125460000D02*
X168272000Y-125460000D01*
X171072000Y-123460000D02*
X171072000Y-125460000D01*
X168272000Y-125460000D02*
X168272000Y-123460000D01*
%TO.C,JP10*%
X168272000Y-95520000D02*
X171072000Y-95520000D01*
X168272000Y-97520000D02*
X168272000Y-95520000D01*
X171072000Y-95520000D02*
X171072000Y-97520000D01*
X171072000Y-97520000D02*
X168272000Y-97520000D01*
%TO.C,J2*%
X142942000Y-125790000D02*
X145602000Y-125790000D01*
X142942000Y-74930000D02*
X145602000Y-74930000D01*
X142942000Y-72330000D02*
X144272000Y-72330000D01*
X142942000Y-74930000D02*
X142942000Y-125790000D01*
X142942000Y-73660000D02*
X142942000Y-72330000D01*
X145602000Y-74930000D02*
X145602000Y-125790000D01*
%TO.C,JP2*%
X168272000Y-77200000D02*
X168272000Y-75200000D01*
X168272000Y-75200000D02*
X171072000Y-75200000D01*
X171072000Y-75200000D02*
X171072000Y-77200000D01*
X171072000Y-77200000D02*
X168272000Y-77200000D01*
%TD*%
M02*
