%TF.GenerationSoftware,KiCad,Pcbnew,(6.0.4)*%
%TF.CreationDate,2022-05-17T22:38:10-07:00*%
%TF.ProjectId,ffc_interceptor,6666635f-696e-4746-9572-636570746f72,rev?*%
%TF.SameCoordinates,Original*%
%TF.FileFunction,Paste,Top*%
%TF.FilePolarity,Positive*%
%FSLAX46Y46*%
G04 Gerber Fmt 4.6, Leading zero omitted, Abs format (unit mm)*
G04 Created by KiCad (PCBNEW (6.0.4)) date 2022-05-17 22:38:10*
%MOMM*%
%LPD*%
G01*
G04 APERTURE LIST*
%ADD10R,1.000000X0.400000*%
%ADD11R,1.300000X2.000000*%
G04 APERTURE END LIST*
D10*
%TO.C,J1*%
X132588000Y-89070000D03*
X132588000Y-90070000D03*
X132588000Y-91070000D03*
X132588000Y-92070000D03*
X132588000Y-93070000D03*
X132588000Y-94070000D03*
X132588000Y-95070000D03*
X132588000Y-96070000D03*
X132588000Y-97070000D03*
X132588000Y-98070000D03*
X132588000Y-99070000D03*
X132588000Y-100070000D03*
X132588000Y-101070000D03*
X132588000Y-102070000D03*
X132588000Y-103070000D03*
X132588000Y-104070000D03*
X132588000Y-105070000D03*
X132588000Y-106070000D03*
X132588000Y-107070000D03*
X132588000Y-108070000D03*
X132588000Y-109070000D03*
D11*
X129888000Y-111870000D03*
X129888000Y-86270000D03*
%TD*%
D10*
%TO.C,J3*%
X184002000Y-109070000D03*
X184002000Y-108070000D03*
X184002000Y-107070000D03*
X184002000Y-106070000D03*
X184002000Y-105070000D03*
X184002000Y-104070000D03*
X184002000Y-103070000D03*
X184002000Y-102070000D03*
X184002000Y-101070000D03*
X184002000Y-100070000D03*
X184002000Y-99070000D03*
X184002000Y-98070000D03*
X184002000Y-97070000D03*
X184002000Y-96070000D03*
X184002000Y-95070000D03*
X184002000Y-94070000D03*
X184002000Y-93070000D03*
X184002000Y-92070000D03*
X184002000Y-91070000D03*
X184002000Y-90070000D03*
X184002000Y-89070000D03*
D11*
X186702000Y-111870000D03*
X186702000Y-86270000D03*
%TD*%
M02*
