%TF.GenerationSoftware,KiCad,Pcbnew,(6.0.4)*%
%TF.CreationDate,2022-05-17T22:38:10-07:00*%
%TF.ProjectId,ffc_interceptor,6666635f-696e-4746-9572-636570746f72,rev?*%
%TF.SameCoordinates,Original*%
%TF.FileFunction,Legend,Bot*%
%TF.FilePolarity,Positive*%
%FSLAX46Y46*%
G04 Gerber Fmt 4.6, Leading zero omitted, Abs format (unit mm)*
G04 Created by KiCad (PCBNEW (6.0.4)) date 2022-05-17 22:38:10*
%MOMM*%
%LPD*%
G01*
G04 APERTURE LIST*
%ADD10C,1.524000*%
%ADD11C,0.300000*%
G04 APERTURE END LIST*
D10*
X186182000Y-118110000D02*
X148082000Y-80010000D01*
X186182000Y-99060000D02*
G75*
G03*
X186182000Y-99060000I-19050000J0D01*
G01*
D11*
X130980571Y-87595714D02*
X129480571Y-87595714D01*
X130552000Y-88095714D01*
X129480571Y-88595714D01*
X130980571Y-88595714D01*
X130980571Y-89524285D02*
X130909142Y-89381428D01*
X130837714Y-89310000D01*
X130694857Y-89238571D01*
X130266285Y-89238571D01*
X130123428Y-89310000D01*
X130052000Y-89381428D01*
X129980571Y-89524285D01*
X129980571Y-89738571D01*
X130052000Y-89881428D01*
X130123428Y-89952857D01*
X130266285Y-90024285D01*
X130694857Y-90024285D01*
X130837714Y-89952857D01*
X130909142Y-89881428D01*
X130980571Y-89738571D01*
X130980571Y-89524285D01*
X130980571Y-90881428D02*
X130909142Y-90738571D01*
X130766285Y-90667142D01*
X129480571Y-90667142D01*
X130909142Y-92024285D02*
X130980571Y-91881428D01*
X130980571Y-91595714D01*
X130909142Y-91452857D01*
X130766285Y-91381428D01*
X130194857Y-91381428D01*
X130052000Y-91452857D01*
X129980571Y-91595714D01*
X129980571Y-91881428D01*
X130052000Y-92024285D01*
X130194857Y-92095714D01*
X130337714Y-92095714D01*
X130480571Y-91381428D01*
X130980571Y-92595714D02*
X129980571Y-93381428D01*
X129980571Y-92595714D02*
X130980571Y-93381428D01*
X129623428Y-95024285D02*
X129552000Y-95095714D01*
X129480571Y-95238571D01*
X129480571Y-95595714D01*
X129552000Y-95738571D01*
X129623428Y-95810000D01*
X129766285Y-95881428D01*
X129909142Y-95881428D01*
X130123428Y-95810000D01*
X130980571Y-94952857D01*
X130980571Y-95881428D01*
X129480571Y-96810000D02*
X129480571Y-96952857D01*
X129552000Y-97095714D01*
X129623428Y-97167142D01*
X129766285Y-97238571D01*
X130052000Y-97310000D01*
X130409142Y-97310000D01*
X130694857Y-97238571D01*
X130837714Y-97167142D01*
X130909142Y-97095714D01*
X130980571Y-96952857D01*
X130980571Y-96810000D01*
X130909142Y-96667142D01*
X130837714Y-96595714D01*
X130694857Y-96524285D01*
X130409142Y-96452857D01*
X130052000Y-96452857D01*
X129766285Y-96524285D01*
X129623428Y-96595714D01*
X129552000Y-96667142D01*
X129480571Y-96810000D01*
X129480571Y-98238571D02*
X129480571Y-98381428D01*
X129552000Y-98524285D01*
X129623428Y-98595714D01*
X129766285Y-98667142D01*
X130052000Y-98738571D01*
X130409142Y-98738571D01*
X130694857Y-98667142D01*
X130837714Y-98595714D01*
X130909142Y-98524285D01*
X130980571Y-98381428D01*
X130980571Y-98238571D01*
X130909142Y-98095714D01*
X130837714Y-98024285D01*
X130694857Y-97952857D01*
X130409142Y-97881428D01*
X130052000Y-97881428D01*
X129766285Y-97952857D01*
X129623428Y-98024285D01*
X129552000Y-98095714D01*
X129480571Y-98238571D01*
X129480571Y-100095714D02*
X129480571Y-99381428D01*
X130194857Y-99310000D01*
X130123428Y-99381428D01*
X130052000Y-99524285D01*
X130052000Y-99881428D01*
X130123428Y-100024285D01*
X130194857Y-100095714D01*
X130337714Y-100167142D01*
X130694857Y-100167142D01*
X130837714Y-100095714D01*
X130909142Y-100024285D01*
X130980571Y-99881428D01*
X130980571Y-99524285D01*
X130909142Y-99381428D01*
X130837714Y-99310000D01*
X129623428Y-100738571D02*
X129552000Y-100810000D01*
X129480571Y-100952857D01*
X129480571Y-101310000D01*
X129552000Y-101452857D01*
X129623428Y-101524285D01*
X129766285Y-101595714D01*
X129909142Y-101595714D01*
X130123428Y-101524285D01*
X130980571Y-100667142D01*
X130980571Y-101595714D01*
X130123428Y-102452857D02*
X130052000Y-102310000D01*
X129980571Y-102238571D01*
X129837714Y-102167142D01*
X129766285Y-102167142D01*
X129623428Y-102238571D01*
X129552000Y-102310000D01*
X129480571Y-102452857D01*
X129480571Y-102738571D01*
X129552000Y-102881428D01*
X129623428Y-102952857D01*
X129766285Y-103024285D01*
X129837714Y-103024285D01*
X129980571Y-102952857D01*
X130052000Y-102881428D01*
X130123428Y-102738571D01*
X130123428Y-102452857D01*
X130194857Y-102310000D01*
X130266285Y-102238571D01*
X130409142Y-102167142D01*
X130694857Y-102167142D01*
X130837714Y-102238571D01*
X130909142Y-102310000D01*
X130980571Y-102452857D01*
X130980571Y-102738571D01*
X130909142Y-102881428D01*
X130837714Y-102952857D01*
X130694857Y-103024285D01*
X130409142Y-103024285D01*
X130266285Y-102952857D01*
X130194857Y-102881428D01*
X130123428Y-102738571D01*
X130409142Y-103667142D02*
X130409142Y-104810000D01*
X129480571Y-105810000D02*
X129480571Y-105952857D01*
X129552000Y-106095714D01*
X129623428Y-106167142D01*
X129766285Y-106238571D01*
X130052000Y-106310000D01*
X130409142Y-106310000D01*
X130694857Y-106238571D01*
X130837714Y-106167142D01*
X130909142Y-106095714D01*
X130980571Y-105952857D01*
X130980571Y-105810000D01*
X130909142Y-105667142D01*
X130837714Y-105595714D01*
X130694857Y-105524285D01*
X130409142Y-105452857D01*
X130052000Y-105452857D01*
X129766285Y-105524285D01*
X129623428Y-105595714D01*
X129552000Y-105667142D01*
X129480571Y-105810000D01*
X129623428Y-106881428D02*
X129552000Y-106952857D01*
X129480571Y-107095714D01*
X129480571Y-107452857D01*
X129552000Y-107595714D01*
X129623428Y-107667142D01*
X129766285Y-107738571D01*
X129909142Y-107738571D01*
X130123428Y-107667142D01*
X130980571Y-106810000D01*
X130980571Y-107738571D01*
X130980571Y-109167142D02*
X130980571Y-108310000D01*
X130980571Y-108738571D02*
X129480571Y-108738571D01*
X129694857Y-108595714D01*
X129837714Y-108452857D01*
X129909142Y-108310000D01*
X129480571Y-110095714D02*
X129480571Y-110238571D01*
X129552000Y-110381428D01*
X129623428Y-110452857D01*
X129766285Y-110524285D01*
X130052000Y-110595714D01*
X130409142Y-110595714D01*
X130694857Y-110524285D01*
X130837714Y-110452857D01*
X130909142Y-110381428D01*
X130980571Y-110238571D01*
X130980571Y-110095714D01*
X130909142Y-109952857D01*
X130837714Y-109881428D01*
X130694857Y-109810000D01*
X130409142Y-109738571D01*
X130052000Y-109738571D01*
X129766285Y-109810000D01*
X129623428Y-109881428D01*
X129552000Y-109952857D01*
X129480571Y-110095714D01*
M02*
